# xmcd
#
# Track frame offsets:
#	150
#	11193
#	25569
#	37596
#	52983
#	66705
#	80409
#	92356
#	104571
#	117946
#	128923
#	141691
#	161351
#	176358
#	189008
#	205898
#	218630
#	233733
#	254086
#	266934
#
# Disc length: 3841 seconds
#
# Revision: 4
# Processed by: cddbd v1.5.2PL0 Copyright (c) Steve Scherf et al.
# Submitted via: EasyCDDAExtractor 10.0.2.1
#
DISCID=160eff14
DTITLE=Conway Twitty - 20 Greatest Hits
DYEAR=2006
DGENRE=Country
TTITLE0=Hello Darling
TTITLE1=Fifteen Years Ago
TTITLE2=I Can't See Me Without You
TTITLE3=Last Date (Lost Her Love On Our Last Date)
TTITLE4=Baby's Gone
TTITLE5=You've Never Been This Far Before
TTITLE6=I'm Not Through Loving You Yet
TTITLE7=Linda On My Mind
TTITLE8=There's A Honky-Tonk Angel (Who'll Take Me Back In)
TTITLE9=I Can't Believe She Gives It All To Me
TTITLE10=I See The Want-To In Your Eyes
TTITLE11=Don't Cry Joni
TTITLE12=Georgia Keeps Pulling On My Ring
TTITLE13=I've Already Loved You In My Mind
TTITLE14=Don't Take It Away
TTITLE15=I May Never Get To Heaven
TTITLE16=I'd Love To Lay You Down
TTITLE17=Rest Your Love On Me
TTITLE18=Tight Fittin' Jeans
TTITLE19=Red Neckin' Love Makin' Night
EXTD=
EXTT0=
EXTT1=
EXTT2=
EXTT3=
EXTT4=
EXTT5=
EXTT6=
EXTT7=
EXTT8=
EXTT9=
EXTT10=
EXTT11=
EXTT12=
EXTT13=
EXTT14=
EXTT15=
EXTT16=
EXTT17=
EXTT18=
EXTT19=
PLAYORDER=
